<svg [ngStyle]="{ width: width, height: height }" viewBox="0 0 78.316666 78.316658" xmlns="http://www.w3.org/2000/svg" xmlns:svg="http://www.w3.org/2000/svg">
   <g id="layer1" transform="translate(-65.175367,-102.41601)">
      <path d="m 104.3337,104.88545 c -20.230395,0 -36.688889,16.4585 -36.688889,36.68889 0,20.23039 16.458494,36.68889 36.688889,36.68889 20.23039,0 36.68889,-16.4585 36.68889,-36.68889 0,-20.23039 -16.4585,-36.68889 -36.68889,-36.68889 m 0,75.84722 c -21.592117,0 -39.158333,-17.56621 -39.158333,-39.15833 0,-21.59211 17.566216,-39.15833 39.158333,-39.15833 21.59212,0 39.15833,17.56622 39.15833,39.15833 0,21.59212 -17.56621,39.15833 -39.15833,39.15833" [attr.fill-opacity]="lookAndFeel.ring.fillOpacity" [attr.fill]="lookAndFeel.ring.fillColor" style="fill-rule:nonzero;stroke:none;stroke-width:0.352778" id="path837" />
      <path d="m 119.09216,139.81045 12.24456,-21.20829 c -6.5031,-7.63658 -16.1865,-12.48198 -27.00302,-12.48198 -1.53388,0 -3.04447,0.0974 -4.527198,0.28645 z" [attr.fill-opacity]="lookAndFeel.section0.fillOpacity" [attr.fill]="lookAndFeel.section0.fillColor" style="fill-rule:nonzero;stroke:none;stroke-width:0.352778" id="path839" />
      <path d="m 113.24063,153.47353 h 24.4983 c 1.32504,-3.71933 2.04894,-7.72477 2.04894,-11.89919 0,-8.08461 -2.70793,-15.53598 -7.26405,-21.50039 z" [attr.fill-opacity]="lookAndFeel.section1.fillOpacity" [attr.fill]="lookAndFeel.section1.fillColor" style="fill-rule:nonzero;stroke:none;stroke-width:0.352778" id="path841" />
      <path d="M 110.18522,127.91126 97.937485,106.69697 c -11.92671,2.17311 -21.770974,10.3131 -26.327805,21.21429 z" [attr.fill-opacity]="lookAndFeel.section5.fillOpacity" [attr.fill]="lookAndFeel.section5.fillColor" style="fill-rule:nonzero;stroke:none;stroke-width:0.352778" id="path843" />
      <path d="m 98.482174,155.23742 12.247736,21.21429 c 11.92671,-2.17311 21.77098,-10.3131 26.32781,-21.21429 z" [attr.fill-opacity]="lookAndFeel.section2.fillOpacity" [attr.fill]="lookAndFeel.section2.fillColor" style="fill-rule:nonzero;stroke:none;stroke-width:0.352778" id="path845" />
      <path d="m 89.575241,143.33823 -12.244564,21.20829 c 6.503106,7.63658 16.186503,12.48199 27.003023,12.48199 1.53388,0 3.04447,-0.0974 4.5272,-0.28646 z" [attr.fill-opacity]="lookAndFeel.section3.fillOpacity" [attr.fill]="lookAndFeel.section3.fillColor" style="fill-rule:nonzero;stroke:none;stroke-width:0.352778" id="path847" />
      <path d="M 95.426766,129.67515 H 70.928467 c -1.325034,3.71933 -2.048934,7.72477 -2.048934,11.89919 0,8.08461 2.707922,15.53598 7.264047,21.50039 z" [attr.fill-opacity]="lookAndFeel.section4.fillOpacity" [attr.fill]="lookAndFeel.section4.fillColor" style="fill-rule:nonzero;stroke:none;stroke-width:0.352778" id="path849" />
   </g>
</svg>